<svg xmlns="http://www.w3.org/2000/svg" viewBox="0 0 440 380" role="img" aria-labelledby="title desc">
<title id="title">Reference drawing: CH Products Fighterstick USB</title><desc id="desc">Original local vector schematic with a model-specific joystick outline and controls. Not a product photograph.</desc>
<defs><linearGradient id="g-ch-products-fighterstick-usb" x1="0" y1="0" x2="1" y2="1"><stop stop-color="#79d7ff"/><stop offset="1" stop-color="#101b22"/></linearGradient></defs>
<rect width="440" height="380" fill="#081110"/><path d="M18 24h404M18 355h404M28 18v340M412 18v340" stroke="#1f4035" stroke-width="1"/>
<g fill="url(#g-ch-products-fighterstick-usb)" stroke="#79d7ff" stroke-width="3" stroke-linejoin="round"><path d="M77 292h128l17 18-14 16H77l-13-16z"/><path d="M125 292l3-83h30l8 83z"/><path d="M129 210l-2-78q0-20 18-23 20 4 19 23l-4 78z"/><path d="M143 136v-24m0 0h24m-24 0h-18"/><circle cx="141" cy="111" r="7"/><rect x="103" y="266" width="18" height="9" rx="4"/><rect x="179" y="263" width="16" height="9" rx="4"/><path d="M279 292h99"/><text x="271" y="220">HAT ARRAY</text><text x="271" y="241">PROGRAMMABLE</text><text x="271" y="262">USB STICK</text></g>
<g fill="#79d7ff" font-family="monospace" font-size="12" letter-spacing="1.3"><text x="32" y="48">CH / FIGHTER</text><text x="32" y="335">MODEL REFERENCE // NOT TO SCALE</text></g>
<circle cx="390" cy="42" r="12" fill="none" stroke="#79d7ff" stroke-width="2"/><path d="M390 34v16m-8-8h16" stroke="#79d7ff" stroke-width="1.5"/>
</svg>