<svg xmlns="http://www.w3.org/2000/svg" viewBox="0 0 720 420" role="img" aria-labelledby="title desc"><title id="title">Cisco CISCO-QSFP-100G-PSM4-S transceiver schematic</title><desc id="desc">Unique schematic of a Cisco CISCO-QSFP-100G-PSM4-S QSFP28 optical module with MPO-12 interface and its lane configuration; not to scale.</desc><rect width="720" height="420" rx="18" fill="#10161d"/><text x="80" y="86" fill="#91a4b5" font-family="monospace" font-size="18">QSFP28 OPTICAL LINK // MPO-12</text><path d="M103 142h385l56 33v70l-56 33h-385z" fill="#16212a" stroke="#a9bac8" stroke-width="5"/><path d="M103 142v136m385 -136v136" fill="none" stroke="#5f7383" stroke-width="3"/><rect x="133" y="159" width="327" height="102" rx="8" fill="#101820" stroke="#3b5363" stroke-width="3"/><path d="M150 173h220" stroke="#79d7d0" stroke-width="5"/><circle cx="168" cy="173" r="6" fill="#dce7ef"/><path d="M150 196h220" stroke="#f3b85b" stroke-width="5"/><circle cx="206" cy="196" r="6" fill="#dce7ef"/><path d="M150 219h220" stroke="#79d7d0" stroke-width="5"/><circle cx="244" cy="219" r="6" fill="#dce7ef"/><path d="M150 242h220" stroke="#f3b85b" stroke-width="5"/><circle cx="282" cy="242" r="6" fill="#dce7ef"/><rect x="578" y="172" width="94" height="50" rx="5" fill="#202d38" stroke="#91a4b5" stroke-width="3"/><circle cx="590" cy="186" r="4" fill="#79d7d0"/><circle cx="604" cy="186" r="4" fill="#79d7d0"/><circle cx="618" cy="186" r="4" fill="#79d7d0"/><circle cx="632" cy="186" r="4" fill="#79d7d0"/><circle cx="646" cy="186" r="4" fill="#f3b85b"/><circle cx="660" cy="186" r="4" fill="#f3b85b"/><circle cx="590" cy="206" r="4" fill="#f3b85b"/><circle cx="604" cy="206" r="4" fill="#f3b85b"/><circle cx="618" cy="206" r="4" fill="#f3b85b"/><circle cx="632" cy="206" r="4" fill="#f3b85b"/><circle cx="646" cy="206" r="4" fill="#f3b85b"/><circle cx="660" cy="206" r="4" fill="#f3b85b"/><path d="M672 203h24m-10-9 10 9-10 9" fill="none" stroke="#f3b85b" stroke-width="5"/><text x="104" y="333" fill="#dce7ef" font-family="monospace" font-size="20">CISCO-QSFP-100G-PSM4-S</text><text x="105" y="363" fill="#79d7d0" font-family="monospace" font-size="16">1310nm / SMF 500m</text><text x="579" y="264" fill="#91a4b5" font-family="monospace" font-size="13">MPO-12</text><text x="580" y="285" fill="#91a4b5" font-family="monospace" font-size="12">4 lane(s)</text></svg>