<svg xmlns="http://www.w3.org/2000/svg" viewBox="0 0 400 270" role="img" aria-labelledby="title desc"><title id="title">Cisco Catalyst 1000 C1000-8T-2G-L Managed Switch schematic</title><desc id="desc">Unique interface illustration for Cisco Catalyst 1000 C1000-8T-2G-L Managed Switch; schematic only, not to scale.</desc><rect width="400" height="270" rx="18" fill="#11171b"/><text x="22" y="30" fill="#57d9a3" font-family="monospace" font-size="13">NETWORK ARCHIVE // MODEL RECORD</text><rect x="44" y="68" width="312" height="128" rx="10" fill="#19252b" stroke="#57d9a3" stroke-width="4"/><rect x="70" y="111" width="35" height="23" rx="3" fill="#0e1519" stroke="#63d7ff" stroke-width="2"/><rect x="118" y="111" width="35" height="23" rx="3" fill="#0e1519" stroke="#63d7ff" stroke-width="2"/><rect x="166" y="111" width="35" height="23" rx="3" fill="#0e1519" stroke="#63d7ff" stroke-width="2"/><rect x="214" y="111" width="35" height="23" rx="3" fill="#0e1519" stroke="#63d7ff" stroke-width="2"/><rect x="262" y="111" width="35" height="23" rx="3" fill="#0e1519" stroke="#63d7ff" stroke-width="2"/><rect x="70" y="145" width="35" height="23" rx="3" fill="#0e1519" stroke="#63d7ff" stroke-width="2"/><rect x="118" y="145" width="35" height="23" rx="3" fill="#0e1519" stroke="#63d7ff" stroke-width="2"/><rect x="166" y="145" width="35" height="23" rx="3" fill="#0e1519" stroke="#63d7ff" stroke-width="2"/><rect x="214" y="145" width="35" height="23" rx="3" fill="#0e1519" stroke="#63d7ff" stroke-width="2"/><rect x="262" y="145" width="35" height="23" rx="3" fill="#0e1519" stroke="#63d7ff" stroke-width="2"/><text x="60" y="225" fill="#c6d5da" font-size="16">10 x GIGABIT SWITCH PORTS</text><text x="22" y="257" fill="#81959d" font-family="monospace" font-size="10">Cisco Catalyst 1000 C1000-8T-2G-L Managed Switch</text></svg>