<svg xmlns="http://www.w3.org/2000/svg" viewBox="0 0 640 360" role="img" aria-labelledby="title"><title id="title">Western Digital Caviar SE WD800JB — part-specific PATA drive schematic</title><rect width="640" height="360" fill="#080e0d"/><text x="320" y="32" text-anchor="middle" fill="#ffe99a" font-family="monospace" font-size="14">Western Digital Caviar SE WD800JB</text><rect x="142" y="62" width="356" height="222" rx="14" fill="#101b18" stroke="#8cffc6" stroke-width="4"/><g fill="none" stroke="#ffe99a" stroke-width="2"><circle cx="157" cy="77" r="5"/><circle cx="483" cy="77" r="5"/><circle cx="157" cy="269" r="5"/><circle cx="483" cy="269" r="5"/></g><circle cx="294" cy="174" r="83" fill="#142923" stroke="#8cffc6" stroke-width="3"/><circle cx="294" cy="174" r="46" fill="none" stroke="#8cffc6" stroke-width="1.4" opacity="0.3"/><circle cx="294" cy="174" r="61" fill="none" stroke="#8cffc6" stroke-width="1.4" opacity="0.42"/><circle cx="294" cy="174" r="76" fill="none" stroke="#8cffc6" stroke-width="1.4" opacity="0.54"/><circle cx="294" cy="174" r="12" fill="#080e0d" stroke="#ffc45c" stroke-width="3"/><g transform="rotate(17 294 174)" fill="none" stroke="#ffe99a" stroke-width="7" stroke-linecap="round"><path d="M294 174 420 113"/><path d="M420 113 435 119" stroke-width="13"/></g><rect x="179" y="218" width="126" height="18" rx="2" fill="#080e0d" stroke="#ffe99a"/><text x="242" y="231" text-anchor="middle" fill="#ffe99a" font-family="monospace" font-size="9">PATA // 80 GB</text><path d="M207 252h198" stroke="#8cffc6"/><g fill="#8cffc6"><rect x="210" y="247" width="4" height="10"/><rect x="219" y="247" width="4" height="10"/><rect x="228" y="247" width="4" height="10"/><rect x="237" y="247" width="4" height="10"/><rect x="246" y="247" width="4" height="10"/><rect x="255" y="247" width="4" height="10"/><rect x="264" y="247" width="4" height="10"/><rect x="273" y="247" width="4" height="10"/><rect x="282" y="247" width="4" height="10"/><rect x="291" y="247" width="4" height="10"/><rect x="300" y="247" width="4" height="10"/><rect x="309" y="247" width="4" height="10"/><rect x="318" y="247" width="4" height="10"/><rect x="327" y="247" width="4" height="10"/><rect x="336" y="247" width="4" height="10"/><rect x="345" y="247" width="4" height="10"/><rect x="354" y="247" width="4" height="10"/><rect x="363" y="247" width="4" height="10"/><rect x="372" y="247" width="4" height="10"/><rect x="381" y="247" width="4" height="10"/></g><text x="307" y="280" fill="#8cffc6" font-size="10" font-family="monospace" text-anchor="middle">40-PIN PARALLEL BUS</text><text x="320" y="330" text-anchor="middle" fill="#8cffc6" font-family="monospace" font-size="14" letter-spacing="2">PATA // ORIGINAL LOCAL SCHEMATIC // NOT TO SCALE</text></svg>
