<svg xmlns="http://www.w3.org/2000/svg" viewBox="0 0 720 420" role="img" aria-labelledby="title desc"><title id="title">Apacer AS350 Panther 512 GB local SSD schematic</title><desc id="desc">Original conceptual block schematic for AP512GAS350-1, not a photograph, dimensional drawing, or actual circuit-board layout.</desc><rect width="720" height="420" fill="#080e0d"/><g fill="none" stroke="#ffcf61" stroke-width="3"><path d="M96 82h528q26 0 26 24v200q0 24-26 24H96q-26 0-26-24V106q0-24 26-24z"/><rect x="106" y="116" width="508" height="178" rx="8"/><path d="M126 125h430M126 284h430M572 105v188"/><rect x="125" y="143" width="58" height="61" rx="5"/><path d="M133 211v9m42 0v-9"/><rect x="217" y="143" width="58" height="61" rx="5"/><path d="M225 211v9m42 0v-9"/><rect x="309" y="143" width="58" height="61" rx="5"/><path d="M317 211v9m42 0v-9"/><rect x="401" y="143" width="58" height="61" rx="5"/><path d="M409 211v9m42 0v-9"/><rect x="493" y="143" width="58" height="61" rx="5"/><path d="M501 211v9m42 0v-9"/><path d="M100 349h178m273 0h100M290 326v40m377 0v-40"/></g><g fill="#ffcf61"><circle cx="575" cy="107" r="7"/><rect x="106" y="335" width="81" height="28" rx="3"/></g><g fill="#eff8ed" font-family="monospace"><text x="112" y="55" font-size="15" letter-spacing="3">LOCAL SSD SCHEMATIC // 06</text><text x="113" y="354" font-size="11" fill="#06100e">AP512GAS350-1</text><text x="113" y="386" font-size="13" fill="#ffcf61">Apacer AS350 Panther 512 GB // CONCEPTUAL, NOT ACTUAL PCB</text></g></svg>
